<?xml version="1.0" encoding="utf-8"?>
<!-- Generator: Adobe Illustrator 24.0.1, SVG Export Plug-In . SVG Version: 6.00 Build 0)  -->
<svg version="1.1" id="Layer_1" xmlns="http://www.w3.org/2000/svg" xmlns:xlink="http://www.w3.org/1999/xlink" x="0px" y="0px"
	 viewBox="0 0 1061.9 617.5" style="enable-background:new 0 0 1061.9 617.5;" xml:space="preserve">
<style type="text/css">
	.st0{fill:#E6E6E6;}
	.st1{fill:#FFFFFF;}
	.st2{fill:#2C3143;}
	.st3{fill:#FFFAFF;}
	.st4{fill:#DCE4ED;}
	.st5{fill:#373C4F;}
	.st6{opacity:0.49;fill:#B5BDBD;enable-background:new    ;}
	.st7{fill:#EBF3FD;}
	.st8{opacity:0.54;fill:#C7CFCF;enable-background:new    ;}
	.st9{fill:#EBF4F4;}
	.st10{fill:#BFCADE;}
	.st11{fill:#AFBACC;}
	.st12{fill:#C2CDDE;}
	.st13{fill:#62CB9D;}
</style>
<path class="st0" d="M817.1,598.3H83.2c-22.6,0-41-18.3-41-41V75.6c0-22.6,18.3-41,41-41h733.9c22.6,0,41,18.3,41,41v481.7
	C858,580,839.7,598.3,817.1,598.3z"/>
<path class="st1" d="M800.7,580.4H66.8c-22.6,0-41-18.3-41-41V57.7c0-22.6,18.3-41,41-41h733.9c22.6,0,41,18.3,41,41v481.7
	C841.6,562.1,823.3,580.4,800.7,580.4z"/>
<path class="st2" d="M807.1,15.9H60.4c-19.1,0-34.7,15.4-34.7,34.5v67.1l815.9-0.1V50.5C841.8,31.3,826.2,15.9,807.1,15.9z"/>
<circle class="st3" cx="90.7" cy="64.1" r="11.1"/>
<circle class="st3" cx="127.8" cy="64.1" r="11.1"/>
<circle class="st3" cx="165.7" cy="65" r="11.1"/>
<ellipse class="st4" cx="641.3" cy="221.2" rx="15.6" ry="28.7"/>
<path class="st5" d="M423,430.4c-130.3,6.9-166.7-88.6-166.7-88.6l24.3-10.4c26.1,78.2,142.4,71.2,142.4,71.2V430.4L423,430.4z"/>
<path class="st5" d="M423,506.9c-97.3,59-173.7-8.7-173.7-8.7l17.4-17.4c67.7,52.1,156.3,0,156.3,0V506.9L423,506.9z"/>
<path class="st5" d="M643.6,430.4c144.1,5.2,166.7-92,166.7-92l-24.3-6.9c-22.6,72.9-142.4,72.9-142.4,72.9L643.6,430.4L643.6,430.4
	z"/>
<path class="st5" d="M643.6,505.1c121.6,59,177.1-8.7,177.1-8.7L805.1,479c-81.6,57.3-161.5-3.5-161.5-3.5L643.6,505.1L643.6,505.1z
	"/>
<path class="st4" d="M581.2,328h-94c-37.4,0-67.6,31.2-67.6,69.7v182.7h229.2V397.7C648.8,359.2,618.5,328,581.2,328z"/>
<rect x="501.2" y="308.9" class="st4" width="64.3" height="19.1"/>
<polygon class="st6" points="859.1,263.8 842.1,263.8 841.1,269.8 858.1,269.8 "/>
<path class="st4" d="M584.3,308.9H484.1c-33.7,0-61-27.3-61-61V205c0-33.7,27.3-61,61-61h100.2c33.7,0,61,27.3,61,61v42.8
	C645.3,281.5,618,308.9,584.3,308.9z"/>
<ellipse class="st7" cx="426.9" cy="222" rx="15.6" ry="28.7"/>
<rect x="529.8" y="104.8" class="st4" width="6.9" height="31.3"/>
<path class="st7" d="M574.9,308.1h-94.4c-31.8,0-57.5-27.3-57.5-61v-42.9c0-33.7,25.7-61,57.5-61h94.4c31.8,0,57.5,27.3,57.5,61V247
	C632.4,280.7,606.7,308.1,574.9,308.1z"/>
<path class="st2" d="M575.6,268.1h-84.7c-23.6,0-42.7-19.1-42.7-42.7v-1.3c0-23.6,19.1-42.7,42.7-42.7h84.7
	c23.6,0,42.7,19.1,42.7,42.7v1.3C618.4,249,599.2,268.1,575.6,268.1z"/>
<path class="st7" d="M511.6,235.5c0,12.2,9.7,22.1,21.7,22.1s21.7-9.9,21.7-22.1H511.6z"/>
<circle class="st7" cx="573.2" cy="210.8" r="11.3"/>
<circle class="st7" cx="493.4" cy="210.8" r="11.3"/>
<path class="st7" d="M572.1,328.8h-88.7c-35.3,0-63.8,31.2-63.8,69.7v182.7h216.3V398.5C635.9,360,607.3,328.8,572.1,328.8z"/>
<path class="st2" d="M590.8,482.5H484.5c-19.6,0-35.4-15.9-35.4-35.4v-52.4c0-19.6,15.9-35.4,35.4-35.4h95.8
	c19.6,0,35.4,15.9,35.4,35.4v62.8C615.8,471.3,604.6,482.5,590.8,482.5z"/>
<ellipse class="st7" cx="533.3" cy="147.4" rx="26.1" ry="14.8"/>
<circle class="st7" cx="533.3" cy="94.4" r="13"/>
<path class="st8" d="M263.8,183.3H138.1c-17.7,0-32,14.3-32,32v26.9c0,0.2,0,0.4,0,0.6c-4.3,9.4-13.1,23.7-28.3,26.7
	c0,0,15.9,5.5,37.5-4.8c5.8,5.9,13.8,9.5,22.7,9.5h125.7c17.7,0,32-14.3,32-32v-26.9C295.8,197.6,281.5,183.3,263.8,183.3z"/>
<path class="st9" d="M256.8,176.6H131c-17.7,0-32,14.3-32,32v26.9c0,0.2,0,0.4,0,0.6c-4.3,9.4-13.1,23.7-28.3,26.7
	c0,0,15.9,5.5,37.5-4.8c5.8,5.9,13.8,9.5,22.7,9.5h125.7c17.7,0,32-14.3,32-32v-26.9C288.8,190.9,274.4,176.6,256.8,176.6z"/>
<path class="st10" d="M251.1,343.6l-13.3-41.7c0,0-26.6-1.7-28.2-34.7h16.6c0,0-1.7,22.6,24.9,13.9s11.6-26.1,11.6-26.1
	s-3.3-3.5-11.6-3.5v-19.1c0,0,33.2,1.7,33.2,31.3c0,0,0,15.6-10,26.1l11.6,43.4L251.1,343.6z"/>
<path class="st11" d="M264.9,205.3H121.2c-2.5,0-4.5-2-4.5-4.5l0,0c0-2.5,2-4.5,4.5-4.5h143.7c2.5,0,4.5,2,4.5,4.5l0,0
	C269.5,203.2,267.4,205.3,264.9,205.3z"/>
<path class="st11" d="M264.9,225.5H121.2c-2.5,0-4.5-2-4.5-4.5l0,0c0-2.5,2-4.5,4.5-4.5h143.7c2.5,0,4.5,2,4.5,4.5l0,0
	C269.5,223.4,267.4,225.5,264.9,225.5z"/>
<path class="st11" d="M239.5,245.7H122.1c-2.5,0-4.5-2-4.5-4.5l0,0c0-2.5,2-4.5,4.5-4.5h117.5c2.5,0,4.5,2,4.5,4.5l0,0
	C244.1,243.6,242,245.7,239.5,245.7z"/>
<path class="st8" d="M253.5,371.7H147.4c-14.6,0-26.5,11.9-26.5,26.5v23.2c0,3.8,0.8,7.5,2.3,10.8c-1.4,8-5,17.3-13.3,22.5
	c0,0,11.2-0.4,23.5-10.8c4.1,2.5,8.9,4,14,4h106.1c14.6,0,26.5-11.9,26.5-26.5v-23.2C280,383.6,268.1,371.7,253.5,371.7z"/>
<path class="st9" d="M246.7,366.3H140.6c-14.6,0-26.5,11.9-26.5,26.5V416c0,3.8,0.8,7.5,2.3,10.8c-1.4,8-5,17.3-13.3,22.5
	c0,0,11.2-0.4,23.5-10.8c4.1,2.5,8.9,4,14,4h106.1c14.6,0,26.5-11.9,26.5-26.5v-23.2C273.2,378.2,261.3,366.3,246.7,366.3z"/>
<path class="st11" d="M253.2,390.4H132.7c-2.1,0-3.8-1.7-3.8-3.8l0,0c0-2.1,1.7-3.8,3.8-3.8h120.5c2.1,0,3.8,1.7,3.8,3.8l0,0
	C257,388.6,255.3,390.4,253.2,390.4z"/>
<path class="st11" d="M253.2,407.3H132.7c-2.1,0-3.8-1.7-3.8-3.8l0,0c0-2.1,1.7-3.8,3.8-3.8h120.5c2.1,0,3.8,1.7,3.8,3.8l0,0
	C257,405.6,255.3,407.3,253.2,407.3z"/>
<path class="st11" d="M176,424.2h-42.6c-2.1,0-3.8-1.7-3.8-3.8l0,0c0-2.1,1.7-3.8,3.8-3.8h42.7c2.1,0,3.8,1.7,3.8,3.8l0,0
	C179.9,422.5,178.1,424.2,176,424.2z"/>
<path class="st12" d="M269.5,477.3l-22.4,26.1l-32.8-26.1c0,0-48.3,19.1-46.6-34.7h15.5c0,0-3.4,38.2,32.8,12.2
	c0,0,15.5-15.6-1.7-27.8c0,0-6.9-6.9-17.2,1.7L185,416.5c0,0,24.1-24.3,46.6,0c0,0,15.5,17.4,5.2,34.7L269.5,477.3z"/>
<path class="st11" d="M253.2,424.2h-10c-2.1,0-3.8-1.7-3.8-3.8l0,0c0-2.1,1.7-3.8,3.8-3.8h10c2.1,0,3.8,1.7,3.8,3.8l0,0
	C257,422.5,255.3,424.2,253.2,424.2z"/>
<path class="st8" d="M966,269.1c-8.5-1.7-14.4-8-18.3-14.1c1.5-3.2,2.4-6.7,2.4-10.5v-16.8c0-13.5-10.9-24.4-24.4-24.4H784.8
	c-13.5,0-24.4,10.9-24.4,24.4v16.8c0,13.5,10.9,24.4,24.4,24.4h140.8c4.4,0,8.6-1.2,12.2-3.2C954.2,273.3,966,269.1,966,269.1z"/>
<path class="st9" d="M961.1,263.1c-8.5-1.7-14.4-8-18.3-14.1c1.5-3.2,2.4-6.7,2.4-10.5v-16.8c0-13.5-10.9-24.4-24.4-24.4H779.9
	c-13.5,0-24.4,10.9-24.4,24.4v16.8c0,13.5,10.9,24.4,24.4,24.4h140.8c4.4,0,8.6-1.2,12.2-3.2C949.2,267.3,961.1,263.1,961.1,263.1z"
	/>
<path class="st11" d="M921.3,219.4H777.6c-2.5,0-4.5-2-4.5-4.5l0,0c0-2.5,2-4.5,4.5-4.5h143.7c2.5,0,4.5,2,4.5,4.5l0,0
	C925.8,217.3,923.8,219.4,921.3,219.4z"/>
<path class="st11" d="M922.3,242.7h-91.1c-2.5,0-4.5-2-4.5-4.5l0,0c0-2.5,2-4.5,4.5-4.5h91.1c2.5,0,4.5,2,4.5,4.5l0,0
	C926.8,240.6,924.8,242.7,922.3,242.7z"/>
<path class="st10" d="M815.5,340.1l13.9-42c0,0,27.8-1.7,29.5-34.9h-17.4c0,0,1.7,22.7-26.1,14c-27.8-8.8-12.2-26.3-12.2-26.3
	s3.5-3.5,12.2-3.5v-19.2c0,0-34.7,1.7-34.7,31.5c0,0,0,15.7,10.4,26.3l-12.2,43.7L815.5,340.1z"/>
<path class="st8" d="M1050.9,435.8c-10.8-0.7-19.3-9-24.9-16.7c0.1-1.2,0.2-2.4,0.2-3.6v-26.9c0-17.7-14.3-32-32-32H868.5
	c-17.7,0-32,14.3-32,32v26.9c0,17.7,14.3,32,32,32h125.7c9.6,0,18.2-4.3,24.1-11C1038.4,443.4,1050.9,435.8,1050.9,435.8z"/>
<path class="st9" d="M1046.8,430.3c-10.8-0.7-19.3-9-24.9-16.7c0.1-1.2,0.2-2.4,0.2-3.6v-26.9c0-17.7-14.3-32-32-32H864.4
	c-17.7,0-32,14.3-32,32V410c0,17.7,14.3,32,32,32h125.7c9.6,0,18.2-4.3,24.1-11C1034.3,437.9,1046.8,430.3,1046.8,430.3z"/>
<path class="st11" d="M998.2,379.7H854.6c-2.5,0-4.5-2-4.5-4.5l0,0c0-2.5,2-4.5,4.5-4.5h143.7c2.5,0,4.5,2,4.5,4.5l0,0
	C1002.8,377.7,1000.8,379.7,998.2,379.7z"/>
<path class="st11" d="M998.2,399.9H854.6c-2.5,0-4.5-2-4.5-4.5l0,0c0-2.5,2-4.5,4.5-4.5h143.7c2.5,0,4.5,2,4.5,4.5l0,0
	C1002.8,397.9,1000.8,399.9,998.2,399.9z"/>
<path class="st11" d="M994.9,422.4h-98.5c-2.5,0-4.5-2-4.5-4.5l0,0c0-2.5,2-4.5,4.5-4.5h98.5c2.5,0,4.5,2,4.5,4.5l0,0
	C999.5,420.4,997.4,422.4,994.9,422.4z"/>
<path class="st12" d="M799.9,476.6l22.6,26.1l33-26.1c0,0,48.6,19.1,46.9-34.7h-15.6c0,0,3.5,38.2-33,12.2c0,0-15.6-15.6,1.7-27.8
	c0,0,6.9-6.9,17.4,1.7l12.2-12.2c0,0-24.3-24.3-46.9,0c0,0-15.6,17.4-5.2,34.7L799.9,476.6z"/>
<polygon class="st8" points="840.8,269 841.5,263.2 858.9,263.2 858.2,269 "/>
<polygon class="st8" points="887,447.5 886.7,441.9 902.3,441.9 902.4,447.5 "/>
<polygon class="st8" points="209.6,267.2 226.2,267.2 227.1,274.2 210.3,274.2 "/>
<polygon class="st8" points="167.7,442.6 183.2,442.6 183.2,447.9 167.6,447.9 "/>
<g>
	<circle class="st2" cx="850" cy="182" r="23.5"/>
	<path class="st13" d="M838,176.8c0,0-0.6-11.5,12-11.5c0,0,11.2,0.1,11.3,9.2c0,0,0.4,4-3.5,6.7s-4.5,2.9-4.5,2.9s-1.2,0.8-1.2,3.8
		h-5.7c0,0-0.4-5.3,3.2-7.3c3.6-2,4.8-3.7,4.8-3.7s2.1-4.9-3.8-5.8s-6.6,6-6.6,6L838,176.8z"/>
	<circle class="st13" cx="849.4" cy="195.3" r="3.6"/>
</g>
<g>
	<circle class="st2" cx="926.8" cy="340.1" r="23.5"/>
	<path class="st13" d="M914.9,334.9c0,0-0.6-11.5,12-11.5c0,0,11.2,0.1,11.3,9.2c0,0,0.4,4-3.5,6.7c-3.8,2.6-4.5,2.9-4.5,2.9
		S929,343,929,346h-5.7c0,0-0.4-5.3,3.2-7.3c3.6-2,4.8-3.7,4.8-3.7s2.1-4.9-3.8-5.8c-5.9-0.8-6.6,6-6.6,6L914.9,334.9z"/>
	<circle class="st13" cx="926.3" cy="353.4" r="3.6"/>
</g>
<g>
	<circle class="st2" cx="199.8" cy="165.4" r="23.5"/>
	<path class="st13" d="M187.8,160.2c0,0-0.6-11.5,12-11.5c0,0,11.2,0.1,11.3,9.2c0,0,0.4,4-3.5,6.7c-3.8,2.6-4.5,2.9-4.5,2.9
		s-1.2,0.8-1.2,3.8h-5.7c0,0-0.4-5.3,3.2-7.3s4.8-3.7,4.8-3.7s2.1-4.9-3.8-5.8c-5.9-0.8-6.6,6-6.6,6L187.8,160.2z"/>
	<circle class="st13" cx="199.3" cy="178.7" r="3.6"/>
</g>
<g>
	<circle class="st2" cx="199.8" cy="355" r="23.5"/>
	<path class="st13" d="M187.8,349.8c0,0-0.6-11.5,12-11.5c0,0,11.2,0.1,11.3,9.2c0,0,0.4,4-3.5,6.7c-3.8,2.6-4.5,2.9-4.5,2.9
		s-1.2,0.8-1.2,3.8h-5.7c0,0-0.4-5.3,3.2-7.3s4.8-3.7,4.8-3.7s2.1-4.9-3.8-5.8c-5.9-0.8-6.6,6-6.6,6L187.8,349.8z"/>
	<circle class="st13" cx="199.3" cy="368.4" r="3.6"/>
</g>
<ellipse class="st13" cx="509.8" cy="417.9" rx="23" ry="27.5"/>
<ellipse class="st2" cx="509.7" cy="417.6" rx="12.3" ry="18.1"/>
<rect x="515.4" y="415.9" transform="matrix(0.7071 -0.7071 0.7071 0.7071 -153.1165 493.3969)" class="st13" width="7.3" height="31.3"/>
<polygon class="st13" points="561.2,391.2 552.5,391.2 534.2,443.8 543.7,443.8 546.8,435.4 566.6,435.3 569.9,443.8 580,443.8 "/>
<polygon class="st2" points="549.6,426.8 563.7,426.8 556.6,406.4 "/>
</svg>
