<svg id="Layer_1" data-name="Layer 1" xmlns="http://www.w3.org/2000/svg" viewBox="0 0 776.82 188.8"><defs><style>.cls-1{fill:#22cf99;}.cls-2{font-size:123.85px;font-family:MaisonNeueExtendedTRIAL-Book, Maison Neue Extended TRIAL;letter-spacing:0em;}.cls-3{letter-spacing:-0.02em;}.cls-4{letter-spacing:0em;}.cls-5{letter-spacing:-0.02em;}</style></defs><title>logo</title><path class="cls-1" d="M150.91,75.88c0-34.62-30.2-62.68-67.45-62.68S16,41.26,16,75.88a60.07,60.07,0,0,0,17.58,42.2,1.94,1.94,0,0,1,.23.27c5,6.89,11.78,13.22,12.41,29.76.05,1.31.69,5.4,2.16,5.4h69.07c1.47,0,2.07-4.1,2.16-5.4,1.08-15.11,6.75-20.77,11.66-28a3.09,3.09,0,0,1,.33-.39A60.26,60.26,0,0,0,150.91,75.88Z" transform="translate(-16 -13.2)"/><path class="cls-1" d="M47.62,197.53v-28.3a4.25,4.25,0,0,1,4-4.47h63.3c4.38,0,5.53,6.81,1.47,8.63l-63.3,28.29C50.44,202.84,47.62,200.68,47.62,197.53Z" transform="translate(-16 -13.2)"/><text class="cls-2" transform="translate(170.51 140.07) scale(0.87 1)">An<tspan class="cls-3" x="171.78" y="0">sw</tspan><tspan class="cls-4" x="351.61" y="0">erb</tspan><tspan class="cls-5" x="564.39" y="0">o</tspan><tspan x="645.02" y="0">t</tspan></text></svg>